<?xml version="1.0" standalone="no"?>
<!DOCTYPE svg PUBLIC "-//W3C//DTD SVG 20010904//EN"
 "http://www.w3.org/TR/2001/REC-SVG-20010904/DTD/svg10.dtd">
<svg version="1.0" xmlns="http://www.w3.org/2000/svg"
 width="338.000000pt" height="338.000000pt" viewBox="0 0 338.000000 338.000000"
 preserveAspectRatio="xMidYMid meet">
<metadata>
Created by potrace 1.14, written by Peter Selinger 2001-2017
</metadata>
<g transform="translate(0.000000,338.000000) scale(0.100000,-0.100000)"
fill="#000000" stroke="none">
<path d="M1255 2507 c-23 -40 -25 -53 -25 -165 0 -125 5 -140 43 -134 9 2 17
-2 17 -7 0 -6 -9 -11 -20 -11 -19 0 -20 -7 -20 -134 0 -74 3 -141 6 -150 6
-17 60 -22 80 -8 6 4 9 57 8 147 -2 77 -4 217 -6 310 -2 94 -7 176 -11 183
-17 25 -46 12 -72 -31z m35 -159 c0 -56 -3 -99 -6 -96 -8 9 -8 198 1 198 3 0
5 -46 5 -102z"/>
<path d="M1454 2470 c-67 -27 -73 -196 -8 -220 27 -11 34 -54 10 -63 -10 -4
-13 -34 -12 -139 1 -73 5 -138 9 -145 13 -20 64 -12 75 11 16 31 10 268 -5
274 -21 6 -15 50 7 57 28 9 50 61 50 121 0 42 -5 58 -24 79 -27 29 -69 39
-102 25z m84 -100 c7 -77 -58 -117 -87 -54 -17 39 -13 69 15 99 l26 28 22 -24
c12 -13 23 -35 24 -49z m-47 -433 c-10 -9 -11 -8 -5 6 3 10 9 15 12 12 3 -3 0
-11 -7 -18z"/>
<path d="M1620 2379 c0 -98 6 -117 44 -137 22 -11 29 -52 9 -52 -10 0 -13 -29
-13 -134 0 -74 3 -141 6 -150 6 -16 39 -21 68 -10 14 5 16 28 16 150 0 109 -3
144 -12 144 -7 0 -13 11 -13 25 0 17 6 25 17 25 35 0 48 39 48 140 l0 95 -85
0 -85 0 0 -96z m118 -58 c-3 -32 -6 -36 -34 -39 -33 -3 -44 13 -44 63 0 18 5
20 41 17 39 -4 40 -5 37 -41z"/>
<path d="M1896 2452 c-2 -4 -11 -45 -20 -91 -20 -104 -21 -233 -2 -296 15 -49
50 -95 73 -95 7 0 13 -11 13 -25 0 -23 -4 -25 -41 -25 -33 0 -40 -3 -37 -17 3
-16 16 -18 108 -18 92 0 105 2 108 18 3 14 -4 17 -42 17 -41 0 -46 2 -46 23 0
14 9 26 23 32 12 6 33 32 47 60 21 43 24 63 25 160 0 72 -6 137 -18 188 l-18
77 -84 0 c-46 0 -86 -3 -89 -8z m147 -75 c5 -21 7 -40 4 -43 -2 -3 -33 -4 -69
-2 l-64 3 9 43 8 43 52 -3 c50 -3 51 -4 60 -41z m23 -124 c9 -49 -9 -176 -30
-208 -9 -13 -25 -29 -36 -35 -17 -9 -25 -6 -49 18 -16 16 -34 46 -40 68 -12
43 -15 177 -4 187 3 4 39 7 79 7 l73 0 7 -37z"/>
<path d="M1983 2254 c-3 -9 -1 -20 4 -25 14 -14 42 0 40 20 -1 21 -36 25 -44
5z"/>
<path d="M1926 2213 c-3 -4 -6 -15 -6 -25 0 -21 35 -25 43 -5 9 23 -20 46 -37
30z"/>
<path d="M1980 2154 c0 -31 45 -35 47 -4 1 11 -1 20 -5 21 -4 0 -15 2 -24 4
-13 2 -18 -3 -18 -21z"/>
<path d="M1962 2076 c-1 -16 5 -22 22 -24 18 -1 23 3 22 21 -1 30 -41 33 -44
3z"/>
<path d="M560 1520 l0 -180 90 0 90 0 0 35 0 35 -55 0 -55 0 0 40 0 40 45 0
c45 0 45 0 45 35 0 35 0 35 -45 35 -45 0 -45 0 -45 35 l0 35 55 0 55 0 0 35 0
35 -90 0 -90 0 0 -180z"/>
<path d="M841 1543 c-18 -87 -35 -168 -38 -181 -5 -22 -3 -23 33 -20 34 3 39
6 44 33 4 25 10 31 37 33 29 3 32 0 39 -32 6 -33 9 -36 40 -36 27 0 34 4 34
20 0 17 -54 279 -66 323 -4 13 -16 17 -47 17 l-42 0 -34 -157z m88 -45 c1 -19
-4 -28 -15 -28 -12 0 -15 6 -10 23 3 12 6 33 7 47 0 23 1 23 9 5 5 -11 9 -32
9 -47z"/>
<path d="M1112 1680 c-15 -14 -19 -34 -21 -93 l-2 -76 57 -18 c58 -18 74 -35
58 -61 -10 -15 -44 -26 -43 -14 6 41 -2 52 -36 52 -33 0 -35 -2 -35 -32 0 -87
26 -101 157 -89 6 1 15 11 19 24 11 31 12 140 2 154 -5 6 -31 17 -59 24 -35 9
-49 18 -49 30 0 53 37 68 47 19 5 -26 10 -30 38 -30 l32 0 -2 50 c-3 63 -20
78 -91 78 -37 0 -59 -6 -72 -18z"/>
<path d="M1330 1684 c0 -8 18 -59 40 -113 33 -80 40 -109 40 -164 l0 -67 35 0
35 0 0 75 c0 65 5 88 40 171 22 53 40 100 40 105 0 14 -80 11 -81 -3 0 -7 -9
-31 -19 -53 l-18 -40 -22 53 c-21 48 -25 52 -56 52 -24 0 -34 -5 -34 -16z"/>
<path d="M1750 1520 l0 -181 33 3 c32 3 32 4 37 63 l5 60 13 -62 c11 -57 15
-63 37 -63 19 0 26 7 31 28 3 15 10 41 14 57 8 30 8 29 10 -10 1 -22 3 -47 4
-55 0 -9 13 -16 34 -18 l32 -3 0 181 0 181 -42 -3 -42 -3 -20 -94 -20 -95 -21
95 -20 94 -43 3 -42 3 0 -181z"/>
<path d="M2070 1522 l0 -179 90 -1 90 0 0 34 0 34 -50 0 -50 0 0 40 0 40 40 0
c39 0 40 1 40 36 0 28 -4 35 -17 33 -10 -1 -30 -1 -45 0 -25 1 -28 5 -28 36
l0 35 55 0 55 0 0 35 0 35 -90 0 -90 0 0 -178z"/>
<path d="M2351 1543 c-18 -87 -35 -167 -38 -179 -4 -19 0 -21 34 -20 34 1 38
4 43 31 4 25 10 31 37 33 29 3 32 0 38 -32 7 -33 10 -35 41 -34 26 1 34 6 34
19 0 16 -54 280 -66 322 -4 13 -16 17 -47 17 l-42 0 -34 -157z m92 -35 c5 -34
3 -38 -15 -38 -18 0 -20 4 -14 38 3 20 6 46 7 57 l0 20 8 -20 c4 -11 11 -37
14 -57z"/>
<path d="M2600 1522 l0 -177 90 -1 90 0 0 33 0 33 -55 0 -55 0 0 145 0 145
-35 0 -35 0 0 -178z"/>
<path d="M60 1060 l0 -190 1603 0 1602 0 1 190 0 190 -1603 0 -1603 0 0 -190z"/>
</g>
</svg>
